<svg xmlns="http://www.w3.org/2000/svg" viewBox="0 0 48 48" role="img" aria-label="Chloe Wu">
  <style>
    .face{fill:#0A0A0A}
    @media (prefers-color-scheme: dark){ .face{fill:#F5F5F5} }
  </style>
  <path class="face" d="m24 4a20 20 0 1 0 20 20 20 20 0 0 0 -20-20zm-11 18a1 1 0 0 1 -.27-2l4.53-1.29-3.7-1.85a1 1 0 1 1 .89-1.79l6 3a1 1 0 0 1 -.18 1.93l-7 2a1 1 0 0 1 -.27 0zm20.95 7.32a10.49 10.49 0 0 1 -9.95 6.68 10.49 10.49 0 0 1 -9.95-6.68 1 1 0 0 1 1.9-.63 8.35 8.35 0 0 0 8.05 5.31 8.35 8.35 0 0 0 8.05-5.32 1 1 0 0 1 1.9.64zm-2.45-8.32a2.5 2.5 0 1 1 2.5-2.5 2.5 2.5 0 0 1 -2.5 2.5z"/>
</svg>
