<svg viewBox="0 0 512 512" xmlns="http://www.w3.org/2000/svg"><g id="WEATHER"><path d="m351 361.68c-110.67 0-200.71-90-200.71-200.71a199.92 199.92 0 0 1 50.8-133.45c11.1-12.43-1.29-31.66-17.19-26.73-106.53 33.04-183.9 132.36-183.9 249.75 0 144 117.46 261.46 261.46 261.46 117.39 0 216.7-77.37 249.75-183.9 4.93-15.9-14.3-28.29-26.73-17.22a199.92 199.92 0 0 1 -133.48 50.8z"/><path d="m329.57 118.69 13 3a47.26 47.26 0 0 1 35.43 35.12l3.09 13c4.69 19.81 32.91 19.7 37.47-.13l3-13a47.24 47.24 0 0 1 35.14-35.39l13-3.09c19.81-4.69 19.7-32.91-.13-37.47l-13-3a47.24 47.24 0 0 1 -35.39-35.14l-3.09-13c-4.69-19.81-32.91-19.7-37.47.14l-3 13a47.27 47.27 0 0 1 -35.14 35.4l-13 3.08c-19.85 4.71-19.74 32.92.09 37.48z"/><path d="m257.49 249.9 8.31 1.91a30.17 30.17 0 0 1 22.6 22.44l2 8.29c3 12.65 21 12.58 23.92-.09l1.91-8.31a30.17 30.17 0 0 1 22.44-22.6l8.29-2c12.65-3 12.58-21-.09-23.93l-8.3-1.91a30.14 30.14 0 0 1 -22.6-22.43l-2-8.3c-3-12.64-21-12.58-23.93.09l-1.9 8.31a30.17 30.17 0 0 1 -22.44 22.63l-8.29 2c-12.65 3-12.58 21 .08 23.9z"/></g></svg>