<?xml version="1.0"?>
<svg xmlns="http://www.w3.org/2000/svg" viewBox="0 0 512 512"><g id="WEATHER"><path d="M275,59.25V19a19,19,0,0,0-38,0V59.25a19,19,0,0,0,38,0Z"/><path d="M275,493V452.75a19,19,0,0,0-38,0V493a19,19,0,0,0,38,0Z"/><path d="M408.56,130.31,437,101.85A19,19,0,1,0,410.15,75l-28.46,28.46a19,19,0,0,0,26.87,26.87Z"/><path d="M101.85,437l28.46-28.46a19,19,0,0,0-26.87-26.87L75,410.15A19,19,0,1,0,101.85,437Z"/><path d="M452.75,275H493a19,19,0,0,0,0-38H452.75a19,19,0,0,0,0,38Z"/><path d="M19,275H59.25a19,19,0,0,0,0-38H19a19,19,0,0,0,0,38Z"/><path d="M381.69,408.56,410.15,437A19,19,0,0,0,437,410.15l-28.46-28.46a19,19,0,0,0-26.87,26.87Z"/><path d="M75,101.85l28.46,28.46a19,19,0,0,0,26.87-26.87L101.85,75A19,19,0,1,0,75,101.85Z"/><path d="M256,99.74A156.26,156.26,0,1,0,412.26,256,156.26,156.26,0,0,0,256,99.74Zm47.81,268.49a14,14,0,0,1-11.72-25.43,102.19,102.19,0,0,0,51.64-53.45,14,14,0,0,1,25.82,10.82A130.13,130.13,0,0,1,303.81,368.23Z"/></g></svg>
