<svg width="540" height="540" viewBox="0 0 540 540" fill="none" xmlns="http://www.w3.org/2000/svg">
<path d="M141.758 140.17C176.198 152.22 213.358 155.67 249.928 149.81C255.608 168.25 258.788 188.88 258.788 210.64C258.788 249.59 248.608 284.89 232.128 310.62C231.938 310.93 231.728 311.25 231.528 311.56C214.748 337.26 191.598 353.15 166.028 353.15C114.798 353.15 73.2681 289.35 73.2681 210.64C73.2681 175.15 81.7181 142.7 95.6681 117.76C110.208 127.05 125.688 134.55 141.758 140.17Z" fill="white"/>
<path d="M349.708 140.17C384.138 152.22 421.308 155.67 457.868 149.81C463.548 168.25 466.728 188.88 466.728 210.64C466.728 249.59 456.548 284.89 440.068 310.62C439.878 310.93 439.668 311.25 439.478 311.56C422.688 337.26 399.538 353.15 373.968 353.15C322.738 353.15 281.208 289.35 281.208 210.64C281.208 175.15 289.658 142.7 303.608 117.76C318.148 127.05 333.628 134.55 349.708 140.17Z" fill="white"/>
<path d="M373.971 359.153C347.095 359.153 322.014 343.361 303.35 314.685C285.204 286.806 275.21 249.856 275.21 210.641C275.21 177.689 282.468 145.664 295.729 119.764C289.744 115.731 283.913 111.383 278.341 106.797L285.967 97.5309C292.601 102.992 299.622 108.094 306.836 112.698C320.864 121.665 335.953 129.003 351.688 134.51C385.349 146.284 421.74 149.527 456.921 143.885L462.069 143.06L463.604 148.043C469.662 167.703 472.733 188.765 472.733 210.641C472.733 249.376 462.941 286.01 445.158 313.802C445.015 314.035 444.865 314.269 444.714 314.502L444.537 314.778C425.838 343.414 400.791 359.153 373.971 359.153ZM305.902 126.233C293.817 150.283 287.21 179.983 287.21 210.641C287.21 285.913 326.131 347.153 373.971 347.153C396.602 347.153 418.081 333.346 434.45 308.277L434.635 307.989C434.738 307.83 434.842 307.671 434.939 307.511L435.016 307.386C451.599 281.494 460.732 247.137 460.732 210.641C460.732 191.788 458.328 173.606 453.58 156.511C418.072 161.346 381.591 157.682 347.723 145.837C333.16 140.74 319.12 134.157 305.902 126.233Z" fill="#2A2A2A"/>
<path d="M466.732 210.641C466.732 249.594 456.548 284.893 440.068 310.623C413.244 304.261 389.676 289.49 372.318 269.245L404.003 233.454L348.391 227.555C343.851 214.426 341.397 200.344 341.397 185.676C341.397 169.649 344.332 154.312 349.703 140.173C384.135 152.217 421.303 155.671 457.868 149.81C463.552 168.253 466.732 188.885 466.732 210.641Z" fill="#2A2A2A"/>
<path d="M166.029 359.153C139.153 359.153 114.072 343.361 95.4071 314.685C77.2611 286.806 67.2671 249.856 67.2671 210.641C67.2671 177.69 74.5251 145.665 87.7861 119.764C81.8031 115.732 75.9721 111.384 70.3981 106.797L78.0241 97.5309C84.6601 102.993 91.6821 108.095 98.8931 112.698C112.921 121.665 128.01 129.003 143.745 134.51C177.406 146.284 213.795 149.527 248.978 143.885L254.126 143.06L255.661 148.043C261.719 167.703 264.79 188.765 264.79 210.641C264.79 249.376 254.998 286.01 237.215 313.802C237.072 314.035 236.922 314.269 236.771 314.502L236.594 314.778C217.896 343.414 192.849 359.153 166.029 359.153ZM97.9601 126.233C85.8751 150.283 79.2681 179.984 79.2681 210.641C79.2681 285.913 118.189 347.153 166.03 347.153C188.661 347.153 210.14 333.346 226.509 308.277L226.694 307.989C226.797 307.83 226.901 307.671 226.998 307.511L227.075 307.386C243.658 281.494 252.791 247.137 252.791 210.641C252.791 191.788 250.387 173.606 245.639 156.511C210.132 161.347 173.65 157.682 139.782 145.837C125.218 140.74 111.178 134.157 97.9601 126.233Z" fill="#2A2A2A"/>
<path d="M258.793 210.641C258.793 249.594 248.609 284.893 232.129 310.623C206.249 304.488 183.417 290.529 166.248 271.378L199.821 233.454L140.302 227.14C135.866 214.134 133.459 200.184 133.459 185.677C133.459 169.65 136.394 154.313 141.765 140.174C176.197 152.218 213.365 155.672 249.93 149.811C255.612 168.253 258.793 188.885 258.793 210.641Z" fill="#2A2A2A"/>
<path d="M146.913 442.469L136.89 435.871C137.9 434.336 162.22 398.031 213.306 375.737C243.246 362.672 276.178 357.205 311.179 359.478C354.6 362.304 401.32 377.139 450.039 403.572L444.316 414.119C397.133 388.52 352.077 374.165 310.4 371.453C277.325 369.305 246.273 374.443 218.105 386.735C170.25 407.621 147.141 442.123 146.913 442.469Z" fill="#2A2A2A"/>
</svg>
