<svg width="540" height="540" viewBox="0 0 540 540" fill="none" xmlns="http://www.w3.org/2000/svg">
<path d="M261.811 232.603C261.811 309.295 223.815 346.814 176.938 346.814C147.843 346.814 122.17 332.36 106.884 303.059C97.5348 285.155 92.0649 261.698 92.0649 232.603C92.0649 175.544 113.092 137.483 143.168 121.73C153.518 116.307 164.933 113.531 176.938 113.531C223.815 113.531 261.811 155.911 261.811 232.603Z" fill="white"/>
<path d="M176.938 352.815C144.137 352.815 117.369 336.13 101.564 305.835C91.28 286.143 86.0649 261.503 86.0649 232.604C86.0649 176.845 105.864 134.496 140.384 116.416C151.635 110.521 163.934 107.532 176.938 107.532C202.454 107.532 225.463 119.303 241.728 140.675C258.791 163.097 267.811 194.886 267.811 232.605C267.811 270.086 258.753 301.084 241.617 322.246C225.421 342.243 203.056 352.815 176.938 352.815ZM176.938 119.531C165.893 119.531 155.468 122.059 145.954 127.045C115.519 142.985 98.0649 181.46 98.0649 232.604C98.0649 259.549 102.821 282.32 112.202 300.283C125.839 326.422 148.828 340.815 176.938 340.815C199.311 340.815 218.452 331.782 232.291 314.693C247.679 295.692 255.812 267.305 255.812 232.604C255.812 197.533 247.64 168.257 232.18 147.941C218.035 129.355 198.932 119.531 176.938 119.531Z" fill="#2A2A2A"/>
<path d="M154.409 223.555L185.689 249.063C171.207 278.99 141.651 300.274 106.887 303.058C97.534 285.16 92.0649 261.696 92.0649 232.606C92.0649 175.546 113.096 137.483 143.169 121.726C169.602 135.38 188.891 160.937 193.942 191.312L154.409 223.555Z" fill="#2A2A2A"/>
<path d="M447.935 232.603C447.935 309.295 409.939 346.814 363.062 346.814C333.967 346.814 308.294 332.36 293.008 303.059C283.659 285.155 278.189 261.698 278.189 232.603C278.189 175.544 299.216 137.483 329.293 121.73C339.643 116.307 351.058 113.531 363.063 113.531C409.939 113.531 447.935 155.911 447.935 232.603Z" fill="white"/>
<path d="M363.062 352.815C330.261 352.815 303.493 336.13 287.688 305.835C277.404 286.141 272.189 261.501 272.189 232.604C272.189 176.845 291.988 134.496 326.508 116.416C337.759 110.521 350.058 107.532 363.062 107.532C388.578 107.532 411.587 119.303 427.852 140.675C444.915 163.097 453.935 194.886 453.935 232.605C453.935 270.086 444.877 301.084 427.741 322.246C411.545 342.243 389.18 352.815 363.062 352.815ZM363.062 119.531C352.017 119.531 341.592 122.059 332.078 127.045C301.643 142.985 284.189 181.46 284.189 232.604C284.189 259.548 288.946 282.318 298.326 300.283C311.963 326.422 334.952 340.815 363.062 340.815C385.435 340.815 404.576 331.782 418.415 314.693C433.803 295.692 441.936 267.305 441.936 232.604C441.936 197.533 433.764 168.257 418.304 147.941C404.159 129.355 385.056 119.531 363.062 119.531Z" fill="#2A2A2A"/>
<path d="M337.824 223.555L371.031 250.64C356.287 279.739 327.168 300.323 293.008 303.058C283.655 285.16 278.186 261.696 278.186 232.606C278.186 175.546 299.217 137.483 329.29 121.726C355.168 135.089 374.194 159.857 379.722 189.385L337.824 223.555Z" fill="#2A2A2A"/>
<path d="M197.712 400.232C250.848 389.228 305.675 389.228 358.811 400.232Z" fill="white"/>
<path d="M357.594 406.107C304.955 395.207 251.572 395.207 198.929 406.107L196.495 394.357C250.75 383.121 305.77 383.121 360.027 394.357L357.594 406.107Z" fill="#2A2A2A"/>
<path d="M188.218 367.618L176.792 371.288L196.442 432.468L207.868 428.798L188.218 367.618Z" fill="#2A2A2A"/>
</svg>
