<svg width="540" height="540" viewBox="0 0 540 540" fill="none" xmlns="http://www.w3.org/2000/svg">
<path d="M157.801 308.109C212.311 308.109 256.5 263.92 256.5 209.41C256.5 154.9 212.311 110.711 157.801 110.711C103.291 110.711 59.1021 154.9 59.1021 209.41C59.1021 263.92 103.291 308.109 157.801 308.109Z" fill="white"/>
<path d="M157.801 314.109C100.069 314.109 53.1021 267.141 53.1021 209.41C53.1021 151.679 100.07 104.711 157.801 104.711C215.532 104.711 262.5 151.679 262.5 209.41C262.5 267.141 215.532 314.109 157.801 314.109ZM157.801 116.711C106.686 116.711 65.1021 158.295 65.1021 209.41C65.1021 260.524 106.686 302.109 157.801 302.109C208.916 302.109 250.5 260.524 250.5 209.41C250.5 158.295 208.916 116.711 157.801 116.711Z" fill="#2A2A2A"/>
<path d="M157.801 314.109C100.069 314.109 53.1021 267.141 53.1021 209.41C53.1021 151.679 100.07 104.711 157.801 104.711C215.532 104.711 262.5 151.679 262.5 209.41C262.5 267.141 215.532 314.109 157.801 314.109ZM157.801 116.711C106.686 116.711 65.1021 158.295 65.1021 209.41C65.1021 260.524 106.686 302.109 157.801 302.109C208.916 302.109 250.5 260.524 250.5 209.41C250.5 158.295 208.916 116.711 157.801 116.711Z" fill="#2A2A2A"/>
<path d="M220.407 216.657C216.816 248.054 190.155 272.431 157.803 272.431C122.994 272.431 94.7739 244.218 94.7739 209.408C94.7739 174.605 122.993 146.385 157.803 146.385C179.069 146.385 197.872 156.923 209.29 173.052C199.498 175.485 192.236 184.341 192.236 194.885C192.236 207.307 202.312 217.377 214.734 217.377C216.693 217.378 218.596 217.126 220.407 216.657Z" fill="#2A2A2A"/>
<path d="M150.993 241.087C158.345 233.735 158.345 221.815 150.993 214.462C143.641 207.11 131.72 207.11 124.368 214.462C117.015 221.815 117.015 233.735 124.368 241.087C131.72 248.44 143.641 248.44 150.993 241.087Z" fill="white"/>
<path d="M159.114 186.312C164.111 186.312 168.162 182.261 168.162 177.264C168.162 172.267 164.111 168.216 159.114 168.216C154.117 168.216 150.066 172.267 150.066 177.264C150.066 182.261 154.117 186.312 159.114 186.312Z" fill="white"/>
<path d="M382.199 308.109C436.709 308.109 480.898 263.92 480.898 209.41C480.898 154.9 436.709 110.711 382.199 110.711C327.689 110.711 283.5 154.9 283.5 209.41C283.5 263.92 327.689 308.109 382.199 308.109Z" fill="white"/>
<path d="M382.199 314.109C324.468 314.109 277.5 267.141 277.5 209.41C277.5 151.679 324.468 104.711 382.199 104.711C439.93 104.711 486.898 151.679 486.898 209.41C486.898 267.141 439.931 314.109 382.199 314.109ZM382.199 116.711C331.085 116.711 289.5 158.295 289.5 209.41C289.5 260.524 331.084 302.109 382.199 302.109C433.314 302.109 474.898 260.524 474.898 209.41C474.898 158.295 433.314 116.711 382.199 116.711Z" fill="#2A2A2A"/>
<path d="M382.199 314.109C324.468 314.109 277.5 267.141 277.5 209.41C277.5 151.679 324.468 104.711 382.199 104.711C439.93 104.711 486.898 151.679 486.898 209.41C486.898 267.141 439.931 314.109 382.199 314.109ZM382.199 116.711C331.085 116.711 289.5 158.295 289.5 209.41C289.5 260.524 331.084 302.109 382.199 302.109C433.314 302.109 474.898 260.524 474.898 209.41C474.898 158.295 433.314 116.711 382.199 116.711Z" fill="#2A2A2A"/>
<path d="M444.805 216.657C441.214 248.054 414.553 272.431 382.201 272.431C347.392 272.431 319.172 244.218 319.172 209.408C319.172 174.605 347.391 146.385 382.201 146.385C403.467 146.385 422.27 156.923 433.688 173.052C423.896 175.485 416.634 184.341 416.634 194.885C416.634 207.307 426.71 217.377 439.132 217.377C441.092 217.378 442.995 217.126 444.805 216.657Z" fill="#2A2A2A"/>
<path d="M380.422 232.033C382.792 221.909 376.505 211.78 366.381 209.41C356.257 207.041 346.128 213.327 343.758 223.452C341.389 233.576 347.675 243.704 357.8 246.074C367.924 248.444 378.053 242.157 380.422 232.033Z" fill="white"/>
<path d="M383.512 186.312C388.509 186.312 392.56 182.261 392.56 177.264C392.56 172.267 388.509 168.216 383.512 168.216C378.515 168.216 374.464 172.267 374.464 177.264C374.464 182.261 378.515 186.312 383.512 186.312Z" fill="white"/>
<path d="M170.57 413.47C162.65 413.47 155.348 409.735 148.658 406.312C137.186 400.444 129.678 397.185 120.281 403.84L113.346 394.047C129.152 382.855 142.997 389.937 154.122 395.629C163.666 400.511 169.851 403.337 176.455 400.006L176.824 399.836C184.159 396.743 186.614 388.423 189.458 378.789C193.081 366.516 197.59 351.24 215.229 346.762L215.607 346.679C233.662 343.317 243.438 355.642 251.291 365.545C258.2 374.259 262.922 379.522 269.859 379.296L270.062 379.288L270.266 379.296C277.237 379.526 281.924 374.258 288.832 365.544C296.684 355.639 306.453 343.311 324.514 346.675L324.892 346.758C342.533 351.237 347.044 366.512 350.668 378.785C353.513 388.419 355.97 396.74 363.307 399.832L363.677 400.003C370.281 403.331 376.467 400.508 386.013 395.627C397.138 389.936 410.985 382.853 426.794 394.047L419.859 403.84C410.459 397.186 402.949 400.443 391.477 406.311C381.766 411.278 370.766 416.904 358.458 410.811C346.035 405.466 342.383 393.1 339.159 382.184C335.325 369.2 332.255 361.098 322.126 358.438C311.831 356.606 306.327 362.791 298.235 372.999C291.303 381.742 283.428 391.641 270.063 391.295C256.649 391.639 248.821 381.744 241.888 373.001C233.794 362.794 228.293 356.608 217.994 358.441C207.868 361.101 204.799 369.202 200.967 382.186C197.745 393.102 194.094 405.468 181.673 410.813C177.846 412.708 174.145 413.47 170.57 413.47Z" fill="#2A2A2A"/>
<path d="M118.844 366.564L102.392 432.379L114.033 435.289L130.485 369.474L118.844 366.564Z" fill="#2A2A2A"/>
<path d="M421.156 366.529L409.515 369.439L425.967 435.254L437.608 432.344L421.156 366.529Z" fill="#2A2A2A"/>
</svg>
