<svg width="540" height="540" viewBox="0 0 540 540" fill="none" xmlns="http://www.w3.org/2000/svg">
<path d="M259.604 200.98C259.604 262.237 209.949 311.891 148.693 311.891C87.4419 311.891 37.782 262.236 37.782 200.98C37.782 193.969 38.4346 187.106 39.6789 180.455C58.2402 188.525 80.919 194.498 106.055 197.583C118.654 199.134 131.864 199.958 145.48 199.958C176.63 199.958 205.652 195.65 230.037 188.212C239.897 185.215 248.994 181.699 257.168 177.752C258.766 185.24 259.604 193.013 259.604 200.98Z" fill="white"/>
<path d="M148.693 317.517C84.4335 317.517 32.1555 265.239 32.1555 200.98C32.1555 193.744 32.826 186.491 34.1482 179.421L35.4468 172.48L41.9227 175.296C60.2636 183.27 82.6771 189.046 106.74 191.997C119.304 193.546 132.337 194.33 145.481 194.33C175.058 194.33 203.73 190.354 228.396 182.83C237.923 179.935 246.779 176.521 254.721 172.685L261.175 169.568L262.671 176.578C264.37 184.538 265.23 192.749 265.23 200.98C265.23 265.239 212.952 317.517 148.693 317.517ZM44.1565 188.379C43.6595 192.553 43.4082 196.769 43.4082 200.981C43.4082 259.035 90.6384 306.265 148.693 306.265C206.747 306.265 253.977 259.035 253.977 200.981C253.977 195.914 253.616 190.859 252.903 185.88C246.27 188.735 239.158 191.321 231.673 193.596C205.96 201.438 176.154 205.585 145.48 205.585C131.878 205.585 118.381 204.772 105.366 203.168C83.0926 200.433 62.097 195.352 44.1565 188.379Z" fill="#2A2A2A"/>
<path d="M233.065 207.703C233.065 242.996 204.455 271.607 169.162 271.607C133.868 271.607 105.258 242.996 105.258 207.703C105.258 204.259 105.53 200.877 106.055 197.583C118.654 199.134 131.864 199.958 145.48 199.958C176.63 199.958 205.652 195.65 230.037 188.212C232.007 194.36 233.065 200.908 233.065 207.703Z" fill="#2A2A2A"/>
<path d="M280.396 200.98C280.396 262.237 330.051 311.891 391.307 311.891C452.558 311.891 502.218 262.236 502.218 200.98C502.218 193.969 501.565 187.106 500.321 180.455C481.76 188.525 459.081 194.498 433.945 197.583C421.347 199.134 408.136 199.958 394.52 199.958C363.369 199.958 334.348 195.65 309.962 188.212C300.103 185.215 291.005 181.699 282.832 177.752C281.233 185.24 280.396 193.013 280.396 200.98Z" fill="white"/>
<path d="M391.307 317.517C327.048 317.517 274.77 265.239 274.77 200.98C274.77 192.747 275.631 184.536 277.329 176.577L278.826 169.567L285.28 172.684C293.221 176.52 302.076 179.934 311.599 182.827C336.272 190.353 364.943 194.33 394.519 194.33C407.664 194.33 420.697 193.545 433.258 191.996C457.323 189.044 479.737 183.268 498.078 175.294L504.553 172.478L505.851 179.418C507.174 186.485 507.844 193.738 507.844 200.978C507.844 265.239 455.566 317.517 391.307 317.517ZM287.096 185.879C286.382 190.858 286.021 195.913 286.021 200.98C286.021 259.034 333.252 306.264 391.306 306.264C449.359 306.264 496.59 259.034 496.59 200.98C496.59 196.767 496.338 192.551 495.841 188.378C477.901 195.352 456.906 200.434 434.629 203.167C421.617 204.77 408.12 205.583 394.519 205.583C363.845 205.583 334.037 201.437 308.32 193.592C300.84 191.319 293.728 188.733 287.096 185.879Z" fill="#2A2A2A"/>
<path d="M394.517 205.587C363.84 205.587 334.034 201.44 308.318 193.594C298.259 190.535 288.86 186.908 280.386 182.817C276.771 181.078 273.29 179.23 270.003 177.309C266.71 179.234 263.225 181.081 259.605 182.822C251.139 186.908 241.738 190.536 231.677 193.596C205.965 201.44 176.158 205.587 145.482 205.587C131.857 205.587 118.36 204.771 105.367 203.163C80.2543 200.088 56.7605 194.018 37.4341 185.611C31.2216 182.913 25.3544 179.933 20 176.753L25.7454 167.078C30.6937 170.017 36.1354 172.781 41.9193 175.291C60.2695 183.274 82.6829 189.049 106.742 191.996C119.286 193.548 132.317 194.335 145.482 194.335C175.06 194.335 203.733 190.357 228.397 182.833C237.912 179.939 246.767 176.524 254.722 172.685C259.097 170.583 263.236 168.323 267.034 165.963L270.003 164.118L272.972 165.963C276.764 168.319 280.901 170.579 285.271 172.682C293.232 176.525 302.087 179.939 311.597 182.832C336.267 190.358 364.938 194.336 394.517 194.336C407.68 194.336 420.714 193.549 433.258 191.997C457.32 189.051 479.732 183.275 498.076 175.294C503.864 172.782 509.305 170.018 514.255 167.079L520 176.755C514.645 179.935 508.777 182.916 502.561 185.614C483.24 194.019 459.749 200.089 434.633 203.166C421.639 204.771 408.14 205.587 394.517 205.587Z" fill="#2A2A2A"/>
<path d="M306.935 207.703C306.935 242.996 335.545 271.607 370.838 271.607C406.131 271.607 434.742 242.996 434.742 207.703C434.742 204.259 434.47 200.877 433.945 197.583C421.347 199.134 408.136 199.958 394.52 199.958C363.369 199.958 334.348 195.65 309.962 188.212C307.994 194.36 306.935 200.908 306.935 207.703Z" fill="#2A2A2A"/>
<path d="M399.067 375.882C363.591 347.094 317.755 331.24 270.003 331.24C222.254 331.24 176.416 347.087 140.93 375.864L133.842 367.125C171.326 336.727 219.682 319.987 270.003 319.987C320.328 319.987 368.681 336.734 406.157 367.144L399.067 375.882Z" fill="#2A2A2A"/>
</svg>
